<svg xmlns="http://www.w3.org/2000/svg" xmlns:xlink="http://www.w3.org/1999/xlink" viewBox="0 0 600 600">
  <defs>
    <style>
      .cls-1 {
        fill: #202c2e;
      }

      .cls-2, .cls-3 {
        fill: #00b3e6;
      }

      .cls-2 {
        opacity: 0.51;
      }

      .cls-3 {
        opacity: 0.38;
      }

      .cls-4 {
        fill: #6a3b85;
      }

      .cls-5 {
        fill: #4665c7;
      }

      .cls-6 {
        fill: url(#linear-gradient);
      }

      .cls-7 {
        fill: url(#linear-gradient-2);
      }

      .cls-8 {
        fill: url(#linear-gradient-3);
      }

      .cls-9 {
        fill: url(#linear-gradient-4);
      }

      .cls-10 {
        fill: url(#linear-gradient-5);
      }

      .cls-11 {
        fill: url(#linear-gradient-6);
      }

      .cls-12 {
        fill: url(#linear-gradient-7);
      }

      .cls-13 {
        fill: url(#linear-gradient-8);
      }
    </style>
    <linearGradient id="linear-gradient" x1="142.73" y1="190.64" x2="627.62" y2="482.2" gradientUnits="userSpaceOnUse">
      <stop offset="0" stop-color="#979bed"/>
      <stop offset="0.28" stop-color="#959bed"/>
      <stop offset="0.44" stop-color="#8c9ded"/>
      <stop offset="0.57" stop-color="#7e9fec"/>
      <stop offset="0.69" stop-color="#6ba2eb"/>
      <stop offset="0.79" stop-color="#51a6ea"/>
      <stop offset="0.89" stop-color="#31abe8"/>
      <stop offset="0.97" stop-color="#0cb1e7"/>
      <stop offset="1" stop-color="#00b3e6"/>
    </linearGradient>
    <linearGradient id="linear-gradient-2" x1="96.27" y1="267.91" x2="581.16" y2="559.46" xlink:href="#linear-gradient"/>
    <linearGradient id="linear-gradient-3" x1="160.49" y1="414.94" x2="513.82" y2="156.94" gradientUnits="userSpaceOnUse">
      <stop offset="0" stop-color="#9067cc"/>
      <stop offset="0.43" stop-color="#8c69cd"/>
      <stop offset="0.45" stop-color="#8c69cd"/>
      <stop offset="0.57" stop-color="#896bce"/>
      <stop offset="0.67" stop-color="#7f70cf"/>
      <stop offset="0.75" stop-color="#6f78d2"/>
      <stop offset="0.82" stop-color="#5884d6"/>
      <stop offset="0.89" stop-color="#3b94db"/>
      <stop offset="0.96" stop-color="#17a7e2"/>
      <stop offset="1" stop-color="#00b3e6"/>
    </linearGradient>
    <linearGradient id="linear-gradient-4" x1="106.61" y1="341.15" x2="459.94" y2="83.15" xlink:href="#linear-gradient-3"/>
    <linearGradient id="linear-gradient-5" x1="296.7" y1="192.43" x2="570.14" y2="527.98" gradientUnits="userSpaceOnUse">
      <stop offset="0" stop-color="#8c69cd"/>
      <stop offset="0.27" stop-color="#637fd4"/>
      <stop offset="0.77" stop-color="#1ca4e1"/>
      <stop offset="1" stop-color="#00b3e6"/>
    </linearGradient>
    <linearGradient id="linear-gradient-6" x1="221.47" y1="389.12" x2="442.36" y2="387.79" gradientUnits="userSpaceOnUse">
      <stop offset="0" stop-color="#979bed"/>
      <stop offset="0.24" stop-color="#959bed" stop-opacity="0.99"/>
      <stop offset="0.38" stop-color="#909ced" stop-opacity="0.96"/>
      <stop offset="0.5" stop-color="#879dec" stop-opacity="0.9"/>
      <stop offset="0.6" stop-color="#7ba0ec" stop-opacity="0.81"/>
      <stop offset="0.69" stop-color="#6aa2eb" stop-opacity="0.7"/>
      <stop offset="0.77" stop-color="#56a5ea" stop-opacity="0.57"/>
      <stop offset="0.85" stop-color="#3ea9e9" stop-opacity="0.41"/>
      <stop offset="0.92" stop-color="#22aee8" stop-opacity="0.23"/>
      <stop offset="0.99" stop-color="#04b2e6" stop-opacity="0.02"/>
      <stop offset="1" stop-color="#00b3e6" stop-opacity="0"/>
    </linearGradient>
    <linearGradient id="linear-gradient-7" x1="221.46" y1="387.44" x2="442.35" y2="386.1" xlink:href="#linear-gradient-6"/>
    <linearGradient id="linear-gradient-8" x1="-50.26" y1="278.98" x2="855.74" y2="325.65" gradientUnits="userSpaceOnUse">
      <stop offset="0" stop-color="#0effb3"/>
      <stop offset="0.11" stop-color="#38cdbc"/>
      <stop offset="0.23" stop-color="#5da2c3"/>
      <stop offset="0.33" stop-color="#7783c9"/>
      <stop offset="0.42" stop-color="#8670cc"/>
      <stop offset="0.48" stop-color="#8c69cd"/>
      <stop offset="0.55" stop-color="#8c69cd"/>
      <stop offset="1" stop-color="#8c69cd"/>
    </linearGradient>
  </defs>
  <g id="Bg">
    <rect class="cls-1" width="600" height="600"/>
  </g>
  <g id="Egg">
    <g>
      <path class="cls-2" d="M205.9,456.33a156.9,156.9,0,0,1-40.06,5.09c-68,0-119.86-41.9-127.74-102.54C31.49,308.08,49.57,192.71,139,141.05c7.6-4.39,15.43-6,26.4-6,9.84,0,24.72,5.66,32.08,9.47.8.41,1.61.86,2.45,1.34A187.14,187.14,0,0,0,147.18,203C95.45,289.88,121.94,401.62,205.9,456.33Z" transform="translate(0 -1.15)"/>
      <path class="cls-3" d="M291.72,372.37a5,5,0,0,1-.12.49c-.11.45-.23.89-.35,1.34-.21.77-.42,1.55-.65,2.31s-.35,1.21-.54,1.81c-.29,1-.59,1.91-.91,2.85-.13.39-.26.78-.4,1.16-.18.54-.37,1.07-.56,1.6-.07.21-.15.42-.23.63-.29.79-.59,1.58-.89,2.35s-.58,1.47-.89,2.2c-.17.42-.35.84-.53,1.26s-.33.76-.5,1.14-.39.89-.6,1.33-.52,1.15-.8,1.72q-.57,1.2-1.17,2.37c-.35.69-.7,1.37-1.06,2-.13.25-.26.5-.41.75-.29.56-.6,1.11-.92,1.66-.49.88-1,1.75-1.51,2.61s-.92,1.49-1.39,2.23-1,1.48-1.44,2.21-1,1.43-1.46,2.14-1.16,1.62-1.76,2.41c-.45.6-.91,1.2-1.37,1.79s-1.07,1.36-1.62,2l-.05.07c-.53.64-1.07,1.28-1.61,1.91s-1,1.19-1.56,1.77a2.05,2.05,0,0,1-.25.27c-.51.58-1.05,1.16-1.58,1.73s-1.21,1.27-1.83,1.89L261.19,426c-.7.67-1.4,1.34-2.11,2-.55.51-1.11,1-1.68,1.51l-.22.19c-.64.56-1.28,1.12-1.93,1.66s-1.09.91-1.64,1.35c-.22.19-.45.37-.67.54l-1.66,1.3q-2,1.54-4.11,3c-.68.48-1.36.95-2,1.41l-.05,0c-.71.47-1.42.94-2.13,1.39s-1.45.91-2.18,1.36L238.58,443q-2.34,1.35-4.73,2.6c-.67.35-1.35.69-2,1-.85.43-1.7.84-2.55,1.25l-2.08,1c-1.47.66-2.94,1.3-4.43,1.9-.57.24-1.15.47-1.73.69l-.18.07-1.38.53q-2.94,1.11-6,2.09l-1.57.5q-3,.93-6,1.74C122,401.66,95.46,289.92,147.19,203a187.14,187.14,0,0,1,52.7-57.16c1,.58,2.06,1.22,3.12,1.9l1.07.69,1.08.73c.69.47,1.38.95,2.08,1.45l.13.1c1.12.8,2.25,1.65,3.41,2.55l1.16.91,0,0q2.31,1.83,4.69,3.9l1.21,1.06q2.43,2.13,4.9,4.5l1.13,1.08q3.79,3.67,7.67,7.85l1.27,1.38c4.65,5.1,9.35,10.72,14,16.8l.66.87.74,1a267.31,267.31,0,0,1,19.88,30.9l1.11,2.06c.36.66.72,1.33,1.07,2l1.18,2.27,1,2c.49,1,1,2,1.47,3a78.22,78.22,0,0,0-30.81,42.89h0a68.75,68.75,0,0,0,.07,42.74,78,78,0,0,0,48.49,51.81Z" transform="translate(0 -1.15)"/>
    </g>
  </g>
  <g id="React">
    <path class="cls-4" d="M104.17,243.59l22.07-10.39s-4.1,6-3.64,9.6S123,364.24,128.48,368s-21-3.06-24.86-11.83C104.14,340,104.83,263,104.17,243.59Z" transform="translate(0 -1.15)"/>
    <path class="cls-5" d="M416.79,301.15c-14.66,30.7-30.48,52-50.08,81.75L365,383c-13.47.92-27.37,1.44-41.57,1.51a85.6,85.6,0,0,0,56.44-24.76,83.34,83.34,0,0,0,9-10.48c1.49-2.07,2.91-4.22,4.24-6.45s2.39-4.21,3.43-6.36A85.54,85.54,0,0,0,321.77,213.6c13.48.11,26.68.51,39.51,1.39,1.84.13,3.66.26,5.48.41l2.77.23c8.28,12.62,16.37,26,24.12,39.87,7.86,14.11,15,28.17,21.47,42,.12.24.23.48.34.72l.78,1.69C416.43,300.34,416.61,300.75,416.79,301.15Z" transform="translate(0 -1.15)"/>
    <g id="Ellipse">
      <path class="cls-6" d="M317.34,441.25q-7.68-8.56-15.34-18.07-6.72-8.31-13.38-17.28l-2.24-3q-5.16-7-10.24-14.49v0q-1.89-2.75-3.75-5.53h0c-.67-1-1.32-2-2-3-8.91-.71-17.64-1.61-26.14-2.67l-1.73-.22.56.88h0l1.45,2.3q6.68,10.53,13.58,20.48c.76,1.09,1.52,2.18,2.29,3.26q4.93,7,9.95,13.71,8.64,11.51,17.46,22,7.23,8.65,14.56,16.6c.37.4.73.8,1.11,1.19q7.36-7,14.81-14.84l.12-.13Zm4.55-318.75c-49-48.15-97.7-70.22-129-52.75-14.29,8-23.48,23.3-27.82,44,4.45-.88,19.42.5,22.54,2.5,3.61-10.36,9.05-21.09,17-25.5,23.71-13.22,62,5.89,102.41,46.37l1.14,1.15c4.93-5,9.86-9.86,14.78-14.41l.2-.19Zm58.78,70.62a519.66,519.66,0,0,0-43.15-54.4l-.14.13q-7.38,7-14.84,14.86c10,11.23,20,23.68,29.87,37.17l1.1,1.51q13,.78,25.61,2.08l2.68.29C381.43,194.21,381.05,193.66,380.67,193.12ZM446,524c-31.1,17.33-79.24-4.25-127.88-51.6q7.37-6.84,14.75-14.41l.18-.19C373,497.49,410.78,516.12,434.28,503S461.86,447.72,449,392.6c-.18-.77-.36-1.56-.55-2.34-1.43-5.94-3.06-12-4.87-18.26-.22-.73-.43-1.46-.65-2.19-4.2-14.07-9.35-28.76-15.44-43.87l-.72-1.78q-4.87-12-10.5-24.22l-.78-1.69c-6.53-14.09-13.81-28.4-21.81-42.75-7.75-13.92-15.84-27.25-24.12-39.87q12.93,1.08,25.3,2.68l2.6.34q7.92,12.69,15.41,26.15,7.77,13.95,14.64,27.86c.27.55.55,1.11.81,1.66q6,12.19,11.25,24.28c.26.59.51,1.17.76,1.76a520.25,520.25,0,0,1,23.16,64.41c.2.71.4,1.41.59,2.11q2.56,9.24,4.62,18.16c.17.76.35,1.52.51,2.27C484.09,454,477.19,506.59,446,524Z" transform="translate(0 -1.15)"/>
      <path class="cls-7" d="M288,439.56,161.16,300.85l-49.31-54.23s-4.48-6.16-8.24-3.75c6.16-4.48,20.54-11.05,22.77-10.88s3.6-.19,6.18,1.35c1,.6,132.36,131.52,132.72,131.87Z" transform="translate(0 -1.15)"/>
    </g>
    <g>
      <path class="cls-8" d="M393.4,341.68q-2.28,3.84-4.61,7.62c1.49-2.07,2.91-4.22,4.24-6.45s2.39-4.21,3.43-6.36Q394.95,339.09,393.4,341.68Zm71.68-109.21c-6-1.75-12.3-3.4-18.78-4.93C441.46,242.41,435.48,258,428.44,274l-.15.33q6,12.19,11.25,24.28c.26.59.51,1.17.76,1.76.07-.14.13-.29.2-.43a519.66,519.66,0,0,0,26.26-67Zm-37.62,93.47q-7.14,13.46-15.18,27t-16.44,26.14l-.74,1.11q-7.71,11.59-15.69,22.46l-1,1.32A519.21,519.21,0,0,1,333,457.79l-.18.19q-7.38,7.56-14.75,14.41l-.21.19c-50.4,46.72-99.67,67.39-130.51,49-13.38-8-22-22.48-26-41.8a184.29,184.29,0,0,0,22.67,1.1c3.37,9,8.53,15.88,15.59,20.08,23.33,13.89,62.18-4.11,103.7-43.43l.15-.14q7.36-7,14.81-14.84l.12-.13c10.41-11,20.88-23.19,31.23-36.47l1.1-1.41q8-10.41,16-21.67c19.6-29.72,35.42-51,50.08-81.75q5.32,11.63,9.95,23Zm45.2-113.86c-.06.22-.11.45-.17.67l-1.71-.53q-8.92-2.7-18.42-5.08l.15-.57c14.57-54.9,11.8-97.33-11.43-111.16S379,99.49,337.52,138.72l-.14.13q-7.38,7-14.84,14.86l-.12.12a496.75,496.75,0,0,0-32.35,37.88c-1.09,0-22.82,1.27-28.54,1.78,3.63-5,24.57-31.1,24.57-31.1,7.21-8.49,14.5-16.49,21.79-24l.18-.18c4.93-5,9.86-9.86,14.78-14.41l.2-.19c50.33-46.59,99.5-67.19,130.3-48.85S489.46,145.89,472.66,212.08Z" transform="translate(0 -1.15)"/>
      <path class="cls-9" d="M255.89,242c-16.14,16.86-36.4,38-55.72,58.15l.11.11-20.37,21.23c-24.9,25.94-44.5,46.28-45.37,47-2.47,2-6.93.73-6.93.73s-12.29-4.12-18.7-7.35-5.2-7.56-5.2-7.56,1.1,4.3,5.08,3.09c1.5-.46,24.31-25.33,52.46-56.44,6-6.67,12.32-13.63,18.7-20.71l-.12-.12c23.85-26.47,48.91-54.43,66.91-74.47,13.92-15.52,37.63-41.45,39.34-43.2C283.1,165.92,255.89,242,255.89,242Z" transform="translate(0 -1.15)"/>
    </g>
    <g id="Ellipse-2" data-name="Ellipse">
      <path class="cls-10" d="M366.71,382.9q-7.89,11.25-16,21.67l-1.1,1.41-1.63.08q-15.3.66-31.09.6c-1.86,0-3.72,0-5.56-.05q-11.5-.15-22.75-.71c-1.49-.07-22.89-.91-28.73-1.46L243,380.14l22.14-14.86.14-.07a86.28,86.28,0,0,0,10.52,7.37,85.17,85.17,0,0,0,39.34,11.94l1.89,0h6.35c14.2-.07,28.1-.59,41.57-1.51Zm81.71,7.36c-1.43-5.94-3.06-12-4.87-18.26l-1.77.39c-14.59,3.17-30.22,5.79-46.68,7.78q-7.71,11.59-15.69,22.46l-1,1.32a521.41,521.41,0,0,0,68.91-11l1.63-.38C448.79,391.83,448.61,391,448.42,390.26Zm23.67-179-1.71-.53q-8.92-2.7-18.42-5.08l-1.87-.47a518.73,518.73,0,0,0-68.69-11.91l-2.68-.29q-12.59-1.31-25.61-2.08-1.42-.1-2.85-.18-16.08-.9-32.74-1c-9.41,0-29.78.28-30.86.33-2.12.09-19.61,1-25.33,1.5-.08.1-8.71,14.25-13,20.53L255.89,242c.12-.12,2.63-2.81,3.79-3.95a85.52,85.52,0,0,1,59.4-24.09c.92,0,1.85,0,2.78,0,13.48.11,26.68.51,39.51,1.39,1.84.13,3.66.26,5.48.41l2.77.23q12.93,1.08,25.3,2.68l2.6.34c16.61,2.2,32.36,5.05,47,8.46l1.84.43c6.48,1.53,12.76,3.18,18.78,4.93l1.68.49c54,15.93,88.34,39.8,88.22,66.74-.13,27.29-35.7,51.44-91,66.85q2.56,9.24,4.62,18.16c.17.76.35,1.52.51,2.27,66.48-19.23,109.88-51,110.05-87.17C579.4,264.45,537,231.17,472.09,211.28Z" transform="translate(0 -1.15)"/>
      <path class="cls-11" d="M449,392.6l-1.63.38a521.41,521.41,0,0,1-68.91,11l1-1.32q8-10.86,15.69-22.46c16.46-2,32.09-4.61,46.68-7.78l1.77-.39c1.81,6.22,3.44,12.32,4.87,18.26C448.61,391,448.79,391.83,449,392.6Z" transform="translate(0 -1.15)"/>
      <path class="cls-12" d="M365,383l1.76-.13q-7.89,11.25-16,21.67l-1.1,1.41-1.63.08q-15.3.66-31.09.6c-1.86,0-3.72,0-5.56-.05q-11.5-.15-22.75-.71l-.34,0c-3.12-.13-28.11,3.28-28.11,3.28l-32.71-35.78,37.68-8.1.14-.07a86.28,86.28,0,0,0,10.52,7.37,85.17,85.17,0,0,0,39.34,11.94l1.89,0h6.35C337.58,384.47,351.48,384,365,383Z" transform="translate(0 -1.15)"/>
    </g>
    <circle class="cls-13" cx="318.06" cy="297.95" r="48"/>
  </g>
</svg>
